<?xml version="1.0" standalone="no"?>
<!DOCTYPE svg PUBLIC "-//W3C//DTD SVG 20010904//EN"
 "http://www.w3.org/TR/2001/REC-SVG-20010904/DTD/svg10.dtd">
<svg version="1.0" xmlns="http://www.w3.org/2000/svg"
 width="382.000000pt" height="382.000000pt" viewBox="0 0 382.000000 382.000000"
 preserveAspectRatio="xMidYMid meet">
<metadata>
Created by potrace 1.11, written by Peter Selinger 2001-2013
</metadata>
<g transform="translate(0.000000,382.000000) scale(0.100000,-0.100000)"
fill="#000000" stroke="none">
<path d="M0 1905 l0 -795 1910 0 1910 0 0 795 0 795 -1910 0 -1910 0 0 -795z
m3800 0 l0 -775 -1890 0 -1890 0 0 775 0 775 1890 0 1890 0 0 -775z"/>
<path d="M345 2317 c-3 -6 -4 -196 -3 -422 3 -381 4 -410 21 -413 16 -3 17 22
17 422 0 376 -2 426 -15 426 -9 0 -18 -6 -20 -13z"/>
<path d="M435 2318 c-3 -7 -4 -198 -3 -423 l3 -410 204 -3 c209 -2 237 2 209
35 -8 10 -56 13 -192 13 l-181 0 0 397 c0 371 -1 398 -18 401 -9 2 -19 -2 -22
-10z"/>
<path d="M2430 2214 c-100 -33 -193 -116 -239 -214 -23 -48 -26 -68 -26 -155
0 -93 2 -105 32 -165 38 -77 93 -136 165 -176 49 -27 61 -29 159 -29 92 0 111
3 155 25 59 30 137 106 166 163 50 99 59 189 28 289 -36 117 -101 191 -211
243 -44 20 -69 25 -134 24 -44 0 -87 -3 -95 -5z m176 -50 c27 -10 67 -29 89
-43 l40 -27 3 -244 c3 -279 6 -269 -90 -310 -102 -44 -207 -35 -300 26 l-38
24 0 254 0 253 39 26 c81 54 174 68 257 41z m-336 -321 c-1 -196 -1 -198 -20
-175 -25 30 -50 118 -50 177 0 63 45 195 66 195 2 0 4 -89 4 -197z m564 2 c0
-83 -4 -108 -22 -147 -13 -27 -25 -48 -27 -48 -3 0 -5 89 -5 198 l1 197 27
-50 c24 -45 26 -61 26 -150z"/>
<path d="M965 2198 c-3 -7 -4 -171 -3 -363 3 -325 4 -350 21 -353 16 -3 17 17
15 359 -2 279 -6 363 -15 367 -7 2 -15 -2 -18 -10z"/>
<path d="M1057 2196 c-8 -19 -8 -683 0 -701 4 -12 36 -15 174 -15 146 0 170 2
176 16 10 28 -18 34 -164 34 l-143 0 0 160 0 159 123 3 c100 3 122 6 122 18 0
12 -22 15 -122 18 l-123 3 0 134 0 134 153 3 c144 3 152 4 152 23 0 19 -8 20
-171 23 -143 2 -173 0 -177 -12z"/>
<path d="M1465 2200 c-5 -8 86 -123 248 -313 49 -58 50 -59 30 -78 -19 -20
-20 -19 -139 125 -65 79 -125 145 -132 145 -10 1 -12 -62 -10 -296 3 -290 4
-298 23 -298 19 0 20 7 20 248 0 136 3 247 6 247 4 0 14 -11 23 -25 9 -13 35
-46 59 -73 46 -52 108 -128 119 -145 10 -16 26 1 151 151 l112 135 3 -272 c2
-252 4 -272 20 -269 16 3 17 27 20 297 2 285 3 294 25 325 l22 31 5 -325 c5
-299 6 -325 23 -328 16 -3 17 19 17 362 0 304 -2 366 -14 366 -15 0 -53 -41
-176 -190 -47 -56 -95 -114 -107 -129 l-23 -26 -37 40 c-21 22 -51 56 -66 75
-92 116 -194 230 -204 230 -6 0 -14 -4 -18 -10z"/>
<path d="M2955 2200 c-4 -6 -2 -16 3 -23 32 -42 270 -338 291 -363 51 -60 67
-80 115 -141 27 -35 55 -63 63 -63 11 0 13 51 11 298 -3 289 -4 297 -23 297
-19 0 -20 -7 -20 -248 0 -136 -3 -246 -6 -245 -3 2 -55 64 -114 138 -242 301
-292 360 -306 360 -4 0 -11 -5 -14 -10z"/>
<path d="M2950 1779 c0 -281 1 -300 18 -297 15 3 17 25 22 253 5 235 6 248 21
225 9 -14 25 -35 35 -46 23 -26 87 -105 231 -283 115 -143 136 -162 153 -145
8 8 -23 53 -107 155 -65 79 -156 191 -202 249 -125 155 -154 190 -163 190 -4
0 -8 -135 -8 -301z"/>
</g>
</svg>
